<svg width="16" height="16" viewBox="0 0 16 16" xmlns="http://www.w3.org/2000/svg">
  <path d="M4 3v10" stroke="#6E6E6E" stroke-width="1.4" stroke-linecap="round"/>
  <circle cx="4" cy="3" r="2" fill="#40B6E0"/>
  <circle cx="4" cy="13" r="2" fill="#40B6E0"/>
  <path d="M4 8h3" stroke="#6E6E6E" stroke-width="1.4" stroke-linecap="round"/>
  <circle cx="8" cy="8" r="2" fill="#62C554"/>
  <path d="M11.8 2.2l.5 1.2 1.2.5-1.2.5-.5 1.2-.5-1.2-1.2-.5 1.2-.5.5-1.2z" fill="#F4B400"/>
  <path d="M9.8 11.8l.8-3.6h1.2l.8 3.6h-.8l-.1-.8h-1l-.1.8h-.8zm1-1.5h.7l-.3-1.4h-.1l-.3 1.4z" fill="#6B57FF"/>
  <path d="M13.2 8.2h.8v3.6h-.8z" fill="#6B57FF"/>
</svg>
